<?xml version="1.0" encoding="UTF-8"?>
<svg xmlns="http://www.w3.org/2000/svg" width="1024" height="1024" viewBox="0 0 1536 1536" role="img" aria-label="JKC logo vector">
  <rect width="100%" height="100%" fill="#020b1a"/>
  <g fill="#d7d8d5" fill-rule="evenodd">
    <path d="M 680.00 1037.50 L 675.00 1035.50 L 637.50 1008.00 L 637.50 438.00 L 676.00 404.50 L 680.00 401.50 L 682.50 403.00 L 681.00 676.50 L 883.00 457.50 L 942.00 456.50 L 943.50 459.00 L 939.50 464.00 L 748.50 664.00 L 718.50 696.00 L 714.50 703.00 L 949.50 987.00 L 969.50 1012.00 L 970.50 1016.00 L 932.00 1016.50 L 915.00 1014.50 L 681.00 729.50 L 679.50 731.00 L 681.50 779.00 L 681.50 1027.00 L 680.00 1037.50 Z
M 1025.00 966.50 L 975.00 964.50 L 910.50 884.00 L 854.50 819.00 L 855.50 644.00 L 945.00 550.50 L 1039.00 550.50 L 1103.50 618.00 L 1103.50 621.00 L 1077.00 647.50 L 1026.00 595.50 L 960.00 595.50 L 898.50 658.00 L 898.50 811.00 L 989.50 920.00 L 997.00 922.50 L 1043.00 921.50 L 1102.00 867.50 L 1104.50 868.00 L 1104.50 918.00 L 1053.00 964.50 L 1025.00 966.50 Z
M 541.00 1011.50 L 481.00 1011.50 L 468.00 999.50 L 428.50 960.00 L 428.50 905.00 L 431.00 904.50 L 492.00 964.50 L 526.00 964.50 L 551.50 938.00 L 553.50 530.00 L 552.50 523.00 L 548.00 520.50 L 507.00 520.50 L 506.50 519.00 L 542.00 497.50 L 598.00 467.50 L 597.50 956.00 L 541.00 1011.50 Z
M 1249.00 709.50 L 1239.50 709.00 L 1235.50 666.00 L 1228.50 627.00 L 1216.50 582.00 L 1204.50 548.00 L 1195.50 527.00 L 1171.50 481.00 L 1156.50 457.00 L 1128.50 419.00 L 1087.00 374.50 L 1062.00 352.50 L 1034.00 331.50 L 997.00 308.50 L 963.00 291.50 L 937.00 280.50 L 910.00 271.50 L 888.00 266.50 L 886.50 260.00 L 889.00 254.50 L 919.00 262.50 L 955.00 275.50 L 999.00 296.50 L 1023.00 310.50 L 1051.00 329.50 L 1082.00 354.50 L 1113.50 385.00 L 1141.50 417.00 L 1170.50 458.00 L 1188.50 488.00 L 1217.50 551.00 L 1231.50 593.00 L 1240.50 630.00 L 1247.50 675.00 L 1249.00 709.50 Z
M 294.00 709.50 L 286.00 709.50 L 284.50 708.00 L 287.50 670.00 L 296.50 621.00 L 314.50 560.00 L 329.50 523.00 L 345.50 491.00 L 366.50 456.00 L 389.50 424.00 L 414.50 394.00 L 445.00 363.50 L 474.00 338.50 L 506.00 315.50 L 536.00 297.50 L 582.00 275.50 L 612.00 264.50 L 648.00 255.50 L 649.00 266.50 L 615.00 275.50 L 578.00 289.50 L 536.00 310.50 L 507.00 328.50 L 457.00 367.50 L 436.50 387.00 L 400.50 428.00 L 363.50 482.00 L 338.50 530.00 L 328.50 554.00 L 316.50 588.00 L 306.50 625.00 L 299.50 661.00 L 295.50 708.00 L 294.00 709.50 Z
M 452.00 1118.50 L 445.00 1114.50 L 429.50 1100.00 L 386.50 1051.00 L 358.50 1011.00 L 333.50 966.00 L 313.50 919.00 L 297.50 867.00 L 287.50 815.00 L 284.50 784.00 L 285.00 770.50 L 294.00 770.50 L 295.50 772.00 L 297.50 808.00 L 306.50 858.00 L 319.50 904.00 L 338.50 951.00 L 360.50 993.00 L 386.50 1033.00 L 418.50 1073.00 L 456.50 1111.00 L 456.50 1114.00 L 452.00 1118.50 Z
M 1085.00 1118.50 L 1082.50 1118.00 L 1078.50 1111.00 L 1117.50 1071.00 L 1149.50 1031.00 L 1176.50 988.00 L 1198.50 945.00 L 1214.50 904.00 L 1227.50 860.00 L 1235.50 819.00 L 1239.50 771.00 L 1249.00 770.50 L 1250.50 773.00 L 1248.50 801.00 L 1240.50 851.00 L 1230.50 890.00 L 1208.50 949.00 L 1184.50 996.00 L 1149.50 1049.00 L 1118.50 1086.00 L 1085.00 1118.50 Z
M 811.00 1366.50 L 801.00 1366.50 L 799.50 1365.00 L 799.50 1353.00 L 832.50 1321.00 L 832.50 1319.00 L 799.50 1288.00 L 800.00 1273.50 L 811.00 1273.50 L 856.50 1319.00 L 851.50 1327.00 L 811.00 1366.50 Z
M 736.00 1366.50 L 726.00 1366.50 L 680.50 1322.00 L 680.50 1318.00 L 726.00 1273.50 L 736.00 1273.50 L 737.50 1275.00 L 737.50 1287.00 L 703.50 1321.00 L 736.50 1353.00 L 736.00 1366.50 Z
M 184.00 758.50 L 178.00 758.50 L 170.00 754.50 L 164.50 745.00 L 164.50 738.00 L 168.50 730.00 L 173.00 726.50 L 180.00 724.50 L 187.00 725.50 L 192.00 728.50 L 198.00 738.50 L 367.00 738.50 L 369.50 741.00 L 368.00 744.50 L 198.00 744.50 L 194.50 752.00 L 184.00 758.50 Z
M 1356.00 758.50 L 1344.00 756.50 L 1338.50 751.00 L 1336.00 744.50 L 1170.00 744.50 L 1167.50 741.00 L 1170.00 738.50 L 1336.00 738.50 L 1337.50 733.00 L 1344.00 726.50 L 1354.00 724.50 L 1362.00 727.50 L 1368.50 737.00 L 1368.50 746.00 L 1366.50 751.00 L 1361.00 756.50 L 1356.00 758.50 Z
M 838.00 1208.50 L 799.00 1208.50 L 797.50 1206.00 L 799.00 1204.50 L 835.00 1204.50 L 895.00 1140.50 L 1048.00 1140.50 L 1052.50 1133.00 L 1059.00 1129.50 L 1069.00 1131.50 L 1074.50 1140.00 L 1072.50 1151.00 L 1066.00 1155.50 L 1058.00 1155.50 L 1054.00 1153.50 L 1049.00 1145.50 L 897.00 1145.50 L 838.00 1208.50 Z
M 736.00 1208.50 L 695.00 1208.50 L 637.00 1145.50 L 485.00 1145.50 L 480.00 1153.50 L 476.00 1155.50 L 468.00 1155.50 L 461.50 1151.00 L 459.50 1139.00 L 465.00 1131.50 L 475.00 1129.50 L 482.50 1135.00 L 485.00 1140.50 L 639.00 1140.50 L 697.00 1203.50 L 736.00 1204.50 L 736.00 1208.50 Z
M 768.00 307.50 L 766.50 307.00 L 763.50 268.00 L 749.00 276.50 L 756.50 262.00 L 755.00 260.50 L 720.50 257.00 L 723.00 254.50 L 748.00 252.50 L 756.50 250.00 L 747.50 236.00 L 750.00 235.50 L 760.00 243.50 L 762.50 243.00 L 767.00 203.50 L 769.50 206.00 L 773.50 244.00 L 788.00 235.50 L 779.50 250.00 L 781.00 251.50 L 815.50 256.00 L 815.00 257.50 L 780.00 260.50 L 779.50 263.00 L 784.50 270.00 L 786.00 275.50 L 775.00 266.50 L 773.50 267.00 L 768.00 307.50 Z
M 867.00 1230.50 L 799.00 1230.50 L 797.50 1228.00 L 799.00 1226.50 L 864.00 1226.50 L 910.00 1178.50 L 1003.00 1178.50 L 1006.50 1173.00 L 1014.00 1167.50 L 1020.00 1167.50 L 1028.50 1174.00 L 1029.50 1186.00 L 1022.00 1193.50 L 1011.00 1192.50 L 1003.00 1182.50 L 914.00 1182.50 L 867.00 1230.50 Z
M 736.00 1230.50 L 667.00 1230.50 L 620.00 1182.50 L 529.00 1182.50 L 526.50 1188.00 L 520.00 1193.50 L 511.00 1193.50 L 504.50 1188.00 L 502.50 1180.00 L 504.50 1174.00 L 514.00 1167.50 L 523.00 1169.50 L 529.00 1178.50 L 624.00 1178.50 L 669.00 1226.50 L 736.00 1226.50 L 736.00 1230.50 Z
M 183.50 752.00 L 186.00 751.50 L 190.50 747.00 L 191.50 738.00 L 187.00 732.50 L 180.00 730.50 L 175.00 732.50 L 171.50 736.00 L 170.50 745.00 L 175.00 750.50 L 179.00 752.50 L 183.50 752.00 Z
M 1355.50 752.00 L 1361.50 747.00 L 1362.50 738.00 L 1357.00 731.50 L 1354.00 730.50 L 1348.00 731.50 L 1342.50 737.00 L 1341.50 740.00 L 1342.50 747.00 L 1350.00 752.50 L 1355.50 752.00 Z
M 769.00 1291.50 L 765.50 1290.00 L 765.50 1221.00 L 767.00 1219.50 L 769.50 1220.00 L 769.00 1291.50 Z
M 769.00 410.50 L 765.50 409.00 L 765.50 364.00 L 767.00 362.50 L 769.00 362.50 L 770.50 365.00 L 770.50 409.00 L 769.00 410.50 Z
M 519.50 1188.00 L 523.50 1184.00 L 522.50 1176.00 L 516.00 1172.50 L 512.00 1173.50 L 508.50 1177.00 L 507.50 1180.00 L 509.50 1186.00 L 513.00 1188.50 L 519.50 1188.00 Z
M 1020.50 1188.00 L 1024.50 1184.00 L 1024.50 1177.00 L 1021.00 1173.50 L 1018.00 1172.50 L 1013.00 1173.50 L 1009.50 1178.00 L 1009.50 1184.00 L 1014.00 1188.50 L 1020.50 1188.00 Z
M 1065.50 1150.00 L 1069.50 1145.00 L 1068.50 1138.00 L 1065.00 1135.50 L 1058.00 1135.50 L 1054.50 1139.00 L 1053.50 1142.00 L 1054.50 1147.00 L 1059.00 1150.50 L 1065.50 1150.00 Z
M 475.50 1150.00 L 479.50 1147.00 L 480.50 1144.00 L 479.50 1139.00 L 476.00 1135.50 L 469.00 1135.50 L 464.50 1141.00 L 464.50 1145.00 L 469.00 1150.50 L 475.50 1150.00 Z
M 770.00 1215.50 L 764.00 1214.50 L 760.50 1209.00 L 761.50 1204.00 L 767.00 1199.50 L 772.00 1200.50 L 775.50 1205.00 L 775.50 1211.00 L 770.00 1215.50 Z
M 772.00 347.50 L 765.00 347.50 L 761.50 344.00 L 760.50 340.00 L 761.50 337.00 L 765.00 333.50 L 770.00 332.50 L 775.50 337.00 L 775.50 344.00 L 772.00 347.50 Z"/>
  </g>
</svg>
